<mxfile host="drawio-plugin" modified="2023-06-09T05:14:28.335Z" agent="5.0 (Windows NT 6.2; Win64; x64) AppleWebKit/537.36 (KHTML, like Gecko) Chrome/89.0.4389.114 Safari/537.36" etag="UAbWTaICqJp7hqRY24mH" version="20.5.3" type="embed"><diagram id="Ed7ZIexu5s1mp6d3kqyb" name="Page-1"><mxGraphModel dx="1507" dy="941" grid="1" gridSize="10" guides="1" tooltips="1" connect="1" arrows="1" fold="1" page="1" pageScale="1" pageWidth="827" pageHeight="1169" math="0" shadow="0"><root><mxCell id="0"/><mxCell id="1" parent="0"/><mxCell id="24" value="&lt;font style=&quot;font-size: 14px;&quot;&gt;实例对象P&lt;/font&gt;" style="rounded=1;whiteSpace=wrap;html=1;verticalAlign=top;fillColor=#d5e8d4;strokeColor=#82b366;" vertex="1" parent="1"><mxGeometry x="40" y="490" width="190" height="80" as="geometry"/></mxCell><mxCell id="25" value="age:18" style="text;html=1;strokeColor=#9673a6;fillColor=#e1d5e7;align=center;verticalAlign=middle;whiteSpace=wrap;rounded=0;" vertex="1" parent="1"><mxGeometry x="107.5" y="520" width="55" height="20" as="geometry"/></mxCell><mxCell id="26" value="__proto__" style="text;html=1;strokeColor=#b85450;fillColor=#f8cecc;align=center;verticalAlign=middle;whiteSpace=wrap;rounded=0;" vertex="1" parent="1"><mxGeometry x="107.5" y="540" width="55" height="20" as="geometry"/></mxCell><mxCell id="27" style="edgeStyle=orthogonalEdgeStyle;rounded=0;orthogonalLoop=1;jettySize=auto;html=1;exitX=0;exitY=0.5;exitDx=0;exitDy=0;entryX=1;entryY=0.5;entryDx=0;entryDy=0;strokeWidth=1;" edge="1" parent="1" source="29" target="24"><mxGeometry relative="1" as="geometry"><Array as="points"><mxPoint x="290" y="530"/><mxPoint x="290" y="530"/></Array></mxGeometry></mxCell><mxCell id="28" value="&lt;font style=&quot;font-size: 15px;&quot;&gt;new&lt;/font&gt;" style="edgeLabel;html=1;align=center;verticalAlign=middle;resizable=0;points=[];" vertex="1" connectable="0" parent="27"><mxGeometry x="0.144" y="14" relative="1" as="geometry"><mxPoint y="-14" as="offset"/></mxGeometry></mxCell><mxCell id="29" value="&lt;font style=&quot;font-size: 17px;&quot;&gt;构造函数Person&lt;/font&gt;" style="rounded=1;whiteSpace=wrap;html=1;verticalAlign=middle;fillColor=#d5e8d4;strokeColor=#82b366;" vertex="1" parent="1"><mxGeometry x="340" y="490" width="190" height="80" as="geometry"/></mxCell><mxCell id="30" value="&lt;font style=&quot;font-size: 14px;&quot;&gt;构造函数原型对象&lt;/font&gt;" style="rounded=1;whiteSpace=wrap;html=1;verticalAlign=top;fillColor=#d5e8d4;strokeColor=#82b366;" vertex="1" parent="1"><mxGeometry x="340" y="310" width="190" height="80" as="geometry"/></mxCell><mxCell id="31" value="" style="endArrow=classic;html=1;rounded=0;exitX=1;exitY=0.5;exitDx=0;exitDy=0;entryX=0;entryY=1;entryDx=0;entryDy=0;" edge="1" parent="1" source="26" target="30"><mxGeometry width="50" height="50" relative="1" as="geometry"><mxPoint x="280" y="440" as="sourcePoint"/><mxPoint x="330" y="390" as="targetPoint"/></mxGeometry></mxCell><mxCell id="32" value="指向" style="edgeLabel;html=1;align=center;verticalAlign=middle;resizable=0;points=[];" vertex="1" connectable="0" parent="31"><mxGeometry x="0.0899" y="-2" relative="1" as="geometry"><mxPoint as="offset"/></mxGeometry></mxCell><mxCell id="33" value="constructor" style="text;html=1;strokeColor=#d79b00;fillColor=#ffe6cc;align=center;verticalAlign=middle;whiteSpace=wrap;rounded=0;" vertex="1" parent="1"><mxGeometry x="405" y="360" width="60" height="20" as="geometry"/></mxCell><mxCell id="34" value="" style="endArrow=classic;html=1;rounded=0;exitX=0.5;exitY=1;exitDx=0;exitDy=0;" edge="1" parent="1" source="33" target="29"><mxGeometry width="50" height="50" relative="1" as="geometry"><mxPoint x="400" y="340" as="sourcePoint"/><mxPoint x="450" y="290" as="targetPoint"/></mxGeometry></mxCell><mxCell id="35" value="__proto__" style="text;html=1;strokeColor=#b85450;fillColor=#f8cecc;align=center;verticalAlign=middle;whiteSpace=wrap;rounded=0;" vertex="1" parent="1"><mxGeometry x="405" y="340" width="60" height="20" as="geometry"/></mxCell><mxCell id="36" value="" style="endArrow=classic;html=1;rounded=0;exitX=1;exitY=0;exitDx=0;exitDy=0;entryX=0;entryY=1;entryDx=0;entryDy=0;" edge="1" parent="1" source="35" target="39"><mxGeometry width="50" height="50" relative="1" as="geometry"><mxPoint x="560" y="220" as="sourcePoint"/><mxPoint x="630" y="190" as="targetPoint"/></mxGeometry></mxCell><mxCell id="37" style="edgeStyle=orthogonalEdgeStyle;rounded=0;orthogonalLoop=1;jettySize=auto;html=1;exitX=0;exitY=0.5;exitDx=0;exitDy=0;entryX=1;entryY=0.5;entryDx=0;entryDy=0;" edge="1" parent="1" source="38" target="30"><mxGeometry relative="1" as="geometry"/></mxCell><mxCell id="38" value="&lt;font style=&quot;font-size: 18px;&quot;&gt;构造函数Object&lt;/font&gt;" style="rounded=1;whiteSpace=wrap;html=1;verticalAlign=middle;fillColor=#d5e8d4;strokeColor=#82b366;" vertex="1" parent="1"><mxGeometry x="580" y="310" width="190" height="80" as="geometry"/></mxCell><mxCell id="39" value="" style="rounded=1;whiteSpace=wrap;html=1;verticalAlign=middle;fillColor=#d5e8d4;strokeColor=#82b366;" vertex="1" parent="1"><mxGeometry x="580" y="180" width="190" height="80" as="geometry"/></mxCell><mxCell id="40" style="edgeStyle=orthogonalEdgeStyle;rounded=0;orthogonalLoop=1;jettySize=auto;html=1;exitX=0.5;exitY=1;exitDx=0;exitDy=0;entryX=0.5;entryY=0;entryDx=0;entryDy=0;" edge="1" parent="1" source="41" target="38"><mxGeometry relative="1" as="geometry"/></mxCell><mxCell id="41" value="constructor" style="text;html=1;strokeColor=#d79b00;fillColor=#ffe6cc;align=center;verticalAlign=middle;whiteSpace=wrap;rounded=0;" vertex="1" parent="1"><mxGeometry x="645" y="220" width="60" height="30" as="geometry"/></mxCell><mxCell id="42" style="edgeStyle=orthogonalEdgeStyle;rounded=0;orthogonalLoop=1;jettySize=auto;html=1;exitX=0.5;exitY=0;exitDx=0;exitDy=0;entryX=0.5;entryY=1;entryDx=0;entryDy=0;" edge="1" parent="1" source="43" target="44"><mxGeometry relative="1" as="geometry"/></mxCell><mxCell id="43" value="__proto__" style="text;html=1;strokeColor=#b85450;fillColor=#f8cecc;align=center;verticalAlign=middle;whiteSpace=wrap;rounded=0;" vertex="1" parent="1"><mxGeometry x="645" y="200" width="60" height="20" as="geometry"/></mxCell><mxCell id="44" value="&lt;font style=&quot;font-size: 19px;&quot;&gt;null&lt;/font&gt;" style="rounded=1;whiteSpace=wrap;html=1;verticalAlign=middle;fillColor=#d5e8d4;strokeColor=#82b366;" vertex="1" parent="1"><mxGeometry x="580" y="30" width="190" height="80" as="geometry"/></mxCell></root></mxGraphModel></diagram></mxfile>